<svg id="visual" viewBox="0 0 950 400" width="950" height="400" xmlns="http://www.w3.org/2000/svg" xmlns:xlink="http://www.w3.org/1999/xlink" version="1.1"><rect x="0" y="0" width="950" height="400" fill="#374bff"></rect><defs><linearGradient id="grad1_0" x1="57.9%" y1="100%" x2="100%" y2="0%"><stop offset="2.5%" stop-color="#ffffff" stop-opacity="1"></stop><stop offset="97.5%" stop-color="#ffffff" stop-opacity="1"></stop></linearGradient></defs><defs><linearGradient id="grad1_1" x1="57.9%" y1="100%" x2="100%" y2="0%"><stop offset="2.5%" stop-color="#ffffff" stop-opacity="1"></stop><stop offset="97.5%" stop-color="#ebe4ff" stop-opacity="1"></stop></linearGradient></defs><defs><linearGradient id="grad1_2" x1="57.9%" y1="100%" x2="100%" y2="0%"><stop offset="2.5%" stop-color="#d6c9ff" stop-opacity="1"></stop><stop offset="97.5%" stop-color="#ebe4ff" stop-opacity="1"></stop></linearGradient></defs><defs><linearGradient id="grad1_3" x1="57.9%" y1="100%" x2="100%" y2="0%"><stop offset="2.5%" stop-color="#d6c9ff" stop-opacity="1"></stop><stop offset="97.5%" stop-color="#c0afff" stop-opacity="1"></stop></linearGradient></defs><defs><linearGradient id="grad1_4" x1="57.9%" y1="100%" x2="100%" y2="0%"><stop offset="2.5%" stop-color="#a795ff" stop-opacity="1"></stop><stop offset="97.5%" stop-color="#c0afff" stop-opacity="1"></stop></linearGradient></defs><defs><linearGradient id="grad1_5" x1="57.9%" y1="100%" x2="100%" y2="0%"><stop offset="2.5%" stop-color="#a795ff" stop-opacity="1"></stop><stop offset="97.5%" stop-color="#8b7cff" stop-opacity="1"></stop></linearGradient></defs><defs><linearGradient id="grad1_6" x1="57.9%" y1="100%" x2="100%" y2="0%"><stop offset="2.5%" stop-color="#6a63ff" stop-opacity="1"></stop><stop offset="97.5%" stop-color="#8b7cff" stop-opacity="1"></stop></linearGradient></defs><defs><linearGradient id="grad1_7" x1="57.9%" y1="100%" x2="100%" y2="0%"><stop offset="2.5%" stop-color="#6a63ff" stop-opacity="1"></stop><stop offset="97.5%" stop-color="#374bff" stop-opacity="1"></stop></linearGradient></defs><defs><linearGradient id="grad2_0" x1="0%" y1="100%" x2="42.1%" y2="0%"><stop offset="2.5%" stop-color="#ffffff" stop-opacity="1"></stop><stop offset="97.5%" stop-color="#ffffff" stop-opacity="1"></stop></linearGradient></defs><defs><linearGradient id="grad2_1" x1="0%" y1="100%" x2="42.1%" y2="0%"><stop offset="2.5%" stop-color="#ebe4ff" stop-opacity="1"></stop><stop offset="97.5%" stop-color="#ffffff" stop-opacity="1"></stop></linearGradient></defs><defs><linearGradient id="grad2_2" x1="0%" y1="100%" x2="42.1%" y2="0%"><stop offset="2.5%" stop-color="#ebe4ff" stop-opacity="1"></stop><stop offset="97.5%" stop-color="#d6c9ff" stop-opacity="1"></stop></linearGradient></defs><defs><linearGradient id="grad2_3" x1="0%" y1="100%" x2="42.1%" y2="0%"><stop offset="2.5%" stop-color="#c0afff" stop-opacity="1"></stop><stop offset="97.5%" stop-color="#d6c9ff" stop-opacity="1"></stop></linearGradient></defs><defs><linearGradient id="grad2_4" x1="0%" y1="100%" x2="42.1%" y2="0%"><stop offset="2.5%" stop-color="#c0afff" stop-opacity="1"></stop><stop offset="97.5%" stop-color="#a795ff" stop-opacity="1"></stop></linearGradient></defs><defs><linearGradient id="grad2_5" x1="0%" y1="100%" x2="42.1%" y2="0%"><stop offset="2.5%" stop-color="#8b7cff" stop-opacity="1"></stop><stop offset="97.5%" stop-color="#a795ff" stop-opacity="1"></stop></linearGradient></defs><defs><linearGradient id="grad2_6" x1="0%" y1="100%" x2="42.1%" y2="0%"><stop offset="2.5%" stop-color="#8b7cff" stop-opacity="1"></stop><stop offset="97.5%" stop-color="#6a63ff" stop-opacity="1"></stop></linearGradient></defs><defs><linearGradient id="grad2_7" x1="0%" y1="100%" x2="42.1%" y2="0%"><stop offset="2.5%" stop-color="#374bff" stop-opacity="1"></stop><stop offset="97.5%" stop-color="#6a63ff" stop-opacity="1"></stop></linearGradient></defs><g transform="translate(950, 400)"><path d="M-360 0C-339 -39.2 -318 -78.5 -304.9 -126.3C-291.8 -174.1 -286.5 -230.5 -254.6 -254.6C-222.6 -278.7 -164 -270.5 -117.1 -282.7C-70.2 -294.9 -35.1 -327.5 0 -360L0 0Z" fill="#5457ff"></path><path d="M-315 0C-296.6 -34.3 -278.3 -68.7 -266.8 -110.5C-255.3 -152.3 -250.7 -201.6 -222.7 -222.7C-194.8 -243.8 -143.5 -236.7 -102.5 -247.4C-61.4 -258 -30.7 -286.5 0 -315L0 0Z" fill="#7c6fff"></path><path d="M-270 0C-254.3 -29.4 -238.5 -58.9 -228.7 -94.7C-218.8 -130.6 -214.9 -172.8 -190.9 -190.9C-167 -209 -123 -202.9 -87.8 -212C-52.7 -221.2 -26.3 -245.6 0 -270L0 0Z" fill="#9a88ff"></path><path d="M-225 0C-211.9 -24.5 -198.8 -49.1 -190.6 -78.9C-182.3 -108.8 -179.1 -144 -159.1 -159.1C-139.1 -174.2 -102.5 -169.1 -73.2 -176.7C-43.9 -184.3 -21.9 -204.7 0 -225L0 0Z" fill="#b4a2ff"></path><path d="M-180 0C-169.5 -19.6 -159 -39.2 -152.4 -63.1C-145.9 -87 -143.3 -115.2 -127.3 -127.3C-111.3 -139.3 -82 -135.3 -58.6 -141.4C-35.1 -147.5 -17.6 -163.7 0 -180L0 0Z" fill="#cbbcff"></path><path d="M-135 0C-127.1 -14.7 -119.3 -29.4 -114.3 -47.4C-109.4 -65.3 -107.4 -86.4 -95.5 -95.5C-83.5 -104.5 -61.5 -101.4 -43.9 -106C-26.3 -110.6 -13.2 -122.8 0 -135L0 0Z" fill="#e1d6ff"></path><path d="M-90 0C-84.8 -9.8 -79.5 -19.6 -76.2 -31.6C-72.9 -43.5 -71.6 -57.6 -63.6 -63.6C-55.7 -69.7 -41 -67.6 -29.3 -70.7C-17.6 -73.7 -8.8 -81.9 0 -90L0 0Z" fill="#f5f1ff"></path><path d="M-45 0C-42.4 -4.9 -39.8 -9.8 -38.1 -15.8C-36.5 -21.8 -35.8 -28.8 -31.8 -31.8C-27.8 -34.8 -20.5 -33.8 -14.6 -35.3C-8.8 -36.9 -4.4 -40.9 0 -45L0 0Z" fill="#ffffff"></path></g><g transform="translate(0, 0)"><path d="M360 0C343.2 42.4 326.4 84.8 311.3 129C296.3 173.1 283.1 219.1 254.6 254.6C226 290 182 314.9 137 330.7C92 346.6 46 353.3 0 360L0 0Z" fill="#5457ff"></path><path d="M315 0C300.3 37.1 285.6 74.2 272.4 112.8C259.3 151.5 247.8 191.7 222.7 222.7C197.7 253.8 159.2 275.6 119.9 289.4C80.5 303.2 40.3 309.1 0 315L0 0Z" fill="#7c6fff"></path><path d="M270 0C257.4 31.8 244.8 63.6 233.5 96.7C222.3 129.9 212.4 164.3 190.9 190.9C169.5 217.5 136.5 236.2 102.8 248.1C69 259.9 34.5 265 0 270L0 0Z" fill="#9a88ff"></path><path d="M225 0C214.5 26.5 204 53 194.6 80.6C185.2 108.2 177 136.9 159.1 159.1C141.2 181.3 113.7 196.8 85.6 206.7C57.5 216.6 28.8 220.8 0 225L0 0Z" fill="#b4a2ff"></path><path d="M180 0C171.6 21.2 163.2 42.4 155.7 64.5C148.2 86.6 141.6 109.6 127.3 127.3C113 145 91 157.5 68.5 165.4C46 173.3 23 176.6 0 180L0 0Z" fill="#cbbcff"></path><path d="M135 0C128.7 15.9 122.4 31.8 116.8 48.4C111.1 64.9 106.2 82.2 95.5 95.5C84.7 108.8 68.2 118.1 51.4 124C34.5 130 17.3 132.5 0 135L0 0Z" fill="#e1d6ff"></path><path d="M90 0C85.8 10.6 81.6 21.2 77.8 32.2C74.1 43.3 70.8 54.8 63.6 63.6C56.5 72.5 45.5 78.7 34.3 82.7C23 86.6 11.5 88.3 0 90L0 0Z" fill="#f5f1ff"></path><path d="M45 0C42.9 5.3 40.8 10.6 38.9 16.1C37 21.6 35.4 27.4 31.8 31.8C28.2 36.3 22.7 39.4 17.1 41.3C11.5 43.3 5.8 44.2 0 45L0 0Z" fill="#ffffff"></path></g></svg>