<svg version="1.2" xmlns="http://www.w3.org/2000/svg" viewBox="0 0 32 32" width="64" height="64">
	<title>icons8-linked-in-svg</title>
	<style>
		.s0 { fill: #ffffff } 
	</style>
	<path id="Layer" fill-rule="evenodd" class="s0" d="m24.5 5c1.4 0 2.5 1.1 2.5 2.5v17c0 1.4-1.1 2.5-2.5 2.5h-17c-1.4 0-2.5-1.1-2.5-2.5v-17c0-1.4 1.1-2.5 2.5-2.5zm-17.5 2.5v17c0 0.3 0.2 0.5 0.5 0.5h17c0.3 0 0.5-0.2 0.5-0.5v-17c0-0.3-0.2-0.5-0.5-0.5h-17c-0.3 0-0.5 0.2-0.5 0.5zm5.2 2.9c0 1-0.8 1.8-1.8 1.8-0.9 0-1.7-0.8-1.7-1.8 0-0.9 0.8-1.7 1.7-1.7 1 0 1.8 0.8 1.8 1.7zm10.8 7.4v5.2h-2.9v-4.6c0-1.1-0.1-2.5-1.6-2.5-1.5 0-1.8 1.2-1.8 2.4v4.7h-2.9v-9.5h2.8v1.3h0.1c0.4-0.7 1.3-1.5 2.8-1.5 3 0 3.5 1.9 3.5 4.5zm-11-4.3v9.5h-3v-9.5z"/>
</svg>