<svg version="1.2" xmlns="http://www.w3.org/2000/svg" viewBox="0 0 32 32" width="64" height="64">
	<title>icons8-instagram-svg</title>
	<style>
		.s0 { fill: #ffffff } 
	</style>
	<path id="Layer" fill-rule="evenodd" class="s0" d="m20.5 5c3.6 0 6.5 2.9 6.5 6.5v9c0 3.6-2.9 6.5-6.5 6.5h-9c-3.6 0-6.5-2.9-6.5-6.5v-9c0-3.6 2.9-6.5 6.5-6.5zm-13.6 6.5v9c0 2.5 2 4.5 4.5 4.5h9.1c2.4 0 4.4-2 4.4-4.5v-9c0-2.5-2-4.5-4.4-4.5h-9.1c-2.5 0-4.5 2-4.5 4.5zm15.8-1.4c0 0.5-0.4 0.9-0.9 0.9-0.5 0-0.9-0.4-0.9-0.9 0-0.5 0.4-0.9 0.9-0.9 0.5 0 0.9 0.4 0.9 0.9zm-0.8 5.9c0 3.3-2.7 6-6 6-3.3 0-6-2.7-6-6 0-3.3 2.7-6 6-6 3.3 0 6 2.7 6 6zm-10 0c0 2.2 1.8 4 4 4 2.3 0 4-1.8 4-4 0-2.2-1.7-4-4-4-2.2 0-4 1.8-4 4z"/>
</svg>