<svg id="visual" viewBox="0 0 900 600" width="900" height="600" xmlns="http://www.w3.org/2000/svg" xmlns:xlink="http://www.w3.org/1999/xlink" version="1.1"><path d="M0 163L13.7 160C27.3 157 54.7 151 82 141C109.3 131 136.7 117 163.8 132C191 147 218 191 245.2 198C272.3 205 299.7 175 327 162C354.3 149 381.7 153 409 148C436.3 143 463.7 129 491 131C518.3 133 545.7 151 573 148C600.3 145 627.7 121 654.8 119C682 117 709 137 736.2 142C763.3 147 790.7 137 818 150C845.3 163 872.7 199 886.3 217L900 235L900 0L886.3 0C872.7 0 845.3 0 818 0C790.7 0 763.3 0 736.2 0C709 0 682 0 654.8 0C627.7 0 600.3 0 573 0C545.7 0 518.3 0 491 0C463.7 0 436.3 0 409 0C381.7 0 354.3 0 327 0C299.7 0 272.3 0 245.2 0C218 0 191 0 163.8 0C136.7 0 109.3 0 82 0C54.7 0 27.3 0 13.7 0L0 0Z" fill="#24252a"></path><path d="M0 253L13.7 242C27.3 231 54.7 209 82 195C109.3 181 136.7 175 163.8 189C191 203 218 237 245.2 244C272.3 251 299.7 231 327 223C354.3 215 381.7 219 409 214C436.3 209 463.7 195 491 197C518.3 199 545.7 217 573 218C600.3 219 627.7 203 654.8 207C682 211 709 235 736.2 233C763.3 231 790.7 203 818 215C845.3 227 872.7 279 886.3 305L900 331L900 233L886.3 215C872.7 197 845.3 161 818 148C790.7 135 763.3 145 736.2 140C709 135 682 115 654.8 117C627.7 119 600.3 143 573 146C545.7 149 518.3 131 491 129C463.7 127 436.3 141 409 146C381.7 151 354.3 147 327 160C299.7 173 272.3 203 245.2 196C218 189 191 145 163.8 130C136.7 115 109.3 129 82 139C54.7 149 27.3 155 13.7 158L0 161Z" fill="#2c3246"></path><path d="M0 403L13.7 409C27.3 415 54.7 427 82 423C109.3 419 136.7 399 163.8 389C191 379 218 379 245.2 373C272.3 367 299.7 355 327 356C354.3 357 381.7 371 409 370C436.3 369 463.7 353 491 353C518.3 353 545.7 369 573 385C600.3 401 627.7 417 654.8 433C682 449 709 465 736.2 454C763.3 443 790.7 405 818 401C845.3 397 872.7 427 886.3 442L900 457L900 329L886.3 303C872.7 277 845.3 225 818 213C790.7 201 763.3 229 736.2 231C709 233 682 209 654.8 205C627.7 201 600.3 217 573 216C545.7 215 518.3 197 491 195C463.7 193 436.3 207 409 212C381.7 217 354.3 213 327 221C299.7 229 272.3 249 245.2 242C218 235 191 201 163.8 187C136.7 173 109.3 179 82 193C54.7 207 27.3 229 13.7 240L0 251Z" fill="#333f63"></path><path d="M0 469L13.7 479C27.3 489 54.7 509 82 512C109.3 515 136.7 501 163.8 494C191 487 218 487 245.2 484C272.3 481 299.7 475 327 478C354.3 481 381.7 493 409 492C436.3 491 463.7 477 491 475C518.3 473 545.7 483 573 498C600.3 513 627.7 533 654.8 543C682 553 709 553 736.2 536C763.3 519 790.7 485 818 484C845.3 483 872.7 515 886.3 531L900 547L900 455L886.3 440C872.7 425 845.3 395 818 399C790.7 403 763.3 441 736.2 452C709 463 682 447 654.8 431C627.7 415 600.3 399 573 383C545.7 367 518.3 351 491 351C463.7 351 436.3 367 409 368C381.7 369 354.3 355 327 354C299.7 353 272.3 365 245.2 371C218 377 191 377 163.8 387C136.7 397 109.3 417 82 421C54.7 425 27.3 413 13.7 407L0 401Z" fill="#394c82"></path><path d="M0 601L13.7 601C27.3 601 54.7 601 82 601C109.3 601 136.7 601 163.8 601C191 601 218 601 245.2 601C272.3 601 299.7 601 327 601C354.3 601 381.7 601 409 601C436.3 601 463.7 601 491 601C518.3 601 545.7 601 573 601C600.3 601 627.7 601 654.8 601C682 601 709 601 736.2 601C763.3 601 790.7 601 818 601C845.3 601 872.7 601 886.3 601L900 601L900 545L886.3 529C872.7 513 845.3 481 818 482C790.7 483 763.3 517 736.2 534C709 551 682 551 654.8 541C627.7 531 600.3 511 573 496C545.7 481 518.3 471 491 473C463.7 475 436.3 489 409 490C381.7 491 354.3 479 327 476C299.7 473 272.3 479 245.2 482C218 485 191 485 163.8 492C136.7 499 109.3 513 82 510C54.7 507 27.3 487 13.7 477L0 467Z" fill="#3e5aa2"></path></svg>